<svg version="1.1" id="Layer_1" xmlns="http://www.w3.org/2000/svg" xmlns:xlink="http://www.w3.org/1999/xlink" x="0px" y="0px"
	 width="100%" viewBox="0 0 500 500" enable-background="new 0 0 500 500" xml:space="preserve">
<path fill="#000000" opacity="1.000000" stroke="none" 
	d="
M342.000000,501.000000 
	C228.000031,501.000000 114.500053,501.000000 1.000061,501.000000 
	C1.000041,334.333405 1.000041,167.666794 1.000020,1.000150 
	C167.666565,1.000100 334.333130,1.000100 500.999756,1.000050 
	C500.999847,167.666519 500.999847,334.333038 500.999939,500.999786 
	C448.166656,501.000000 395.333344,501.000000 342.000000,501.000000 
M285.150024,426.295319 
	C284.999207,426.100250 284.848389,425.905182 284.680756,424.820160 
	C284.974243,420.876678 284.599579,416.739563 285.676697,413.023193 
	C290.382721,396.786072 295.569366,380.688904 300.447815,364.500671 
	C301.881256,359.744141 302.797211,354.834198 304.085815,350.030945 
	C306.963013,339.306458 309.783447,328.563354 312.895142,317.906128 
	C315.761017,308.090881 319.466919,298.499573 321.928406,288.592377 
	C325.957123,272.377563 331.523346,256.888336 339.631500,242.225403 
	C341.383301,239.057419 343.975220,235.235703 341.844116,230.813828 
	C339.286072,225.505966 339.900238,224.142532 345.868103,222.765884 
	C353.621185,220.977386 361.439148,219.453629 369.259674,217.977295 
	C388.518829,214.341599 407.630768,209.653091 427.450073,209.995438 
	C431.616394,210.067398 433.436310,206.289413 432.051270,202.397995 
	C430.638031,198.427475 427.403656,196.968002 424.192047,195.237793 
	C423.822357,195.038635 423.532959,194.690430 423.153778,194.366440 
	C423.577942,194.151108 423.861206,193.987839 424.159821,193.860428 
	C424.590698,193.676590 425.032684,193.518723 426.021637,193.136566 
	C416.447662,187.954987 407.384277,188.802795 398.392609,190.509933 
	C371.772064,195.563965 345.119843,200.489883 318.614319,206.100403 
	C289.814667,212.196503 261.556061,220.241638 234.704178,232.607452 
	C228.274872,235.568283 227.021423,239.151138 229.908768,245.864349 
	C232.997055,253.044754 238.353989,255.834686 244.298431,253.508911 
	C256.633514,248.682800 268.963959,243.841019 281.367096,239.194550 
	C286.968842,237.096024 292.739868,235.449234 298.434082,233.597519 
	C292.317871,240.487137 285.907074,246.481934 279.392303,252.361526 
	C265.807190,264.622101 252.235535,276.899231 238.523209,289.016602 
	C230.670029,295.956390 222.908035,303.083679 214.466858,309.253510 
	C202.538101,317.972504 190.240753,326.240234 177.693497,334.045868 
	C163.678314,342.764648 148.684402,349.290863 131.815735,350.028687 
	C125.944382,350.285492 124.371544,348.315002 125.676620,342.483643 
	C126.953094,336.780090 128.410934,331.113190 129.939728,325.471008 
	C132.222534,317.046051 134.452576,308.599274 137.049332,300.269104 
	C139.513138,292.365540 142.060715,284.450439 145.240005,276.818909 
	C148.013062,270.162537 151.956711,264.001099 155.207794,257.554932 
	C167.420471,233.339966 181.041367,209.824982 194.479385,186.244202 
	C198.807907,178.648605 204.181244,171.646515 209.107864,164.394135 
	C215.333328,155.229797 221.439209,145.978409 227.896271,136.979568 
	C231.278870,132.265427 235.235931,127.953651 239.047440,123.558937 
	C252.001587,108.622643 264.861450,93.600418 278.052826,78.875725 
	C284.705139,71.450188 294.453369,69.077660 303.176910,65.138641 
	C304.395660,64.588326 306.229340,64.737030 307.552612,65.203087 
	C311.810730,66.702789 312.640320,64.369720 312.545746,61.009113 
	C312.343292,53.814991 307.135193,47.848190 298.871277,47.118649 
	C288.079895,46.165993 276.966980,46.086323 267.512268,52.436939 
	C261.803894,56.271187 256.337708,60.920254 251.961197,66.197205 
	C239.233414,81.543678 226.523193,96.969139 214.887329,113.141563 
	C197.716751,137.006561 180.697449,161.052170 165.076355,185.938950 
	C150.975784,208.403275 138.911865,232.141586 125.814720,255.241501 
	C114.838417,274.600800 106.889168,295.179657 101.747826,316.739563 
	C100.229088,323.108337 100.111504,330.367828 101.549942,336.721527 
	C102.869942,342.552094 106.438965,348.301086 110.325752,353.004608 
	C114.340904,357.863403 119.313545,362.867432 124.949417,365.278320 
	C143.302582,373.129242 161.157883,367.662292 177.748627,359.566742 
	C198.531723,349.425507 217.160675,335.543610 235.149750,321.112335 
	C251.662384,307.865509 267.248138,293.460541 283.188812,279.504791 
	C289.280670,274.171478 295.224121,268.668671 301.235168,263.243103 
	C300.879486,269.147766 299.589386,274.383240 298.190887,279.589600 
	C293.479614,297.128571 288.710480,314.652069 284.008636,332.193573 
	C282.856567,336.491730 282.034637,340.882263 280.786530,345.150116 
	C277.580444,356.113525 274.121765,367.003448 270.953156,377.977356 
	C268.429108,386.718842 266.266357,395.564178 263.792755,404.320862 
	C261.159210,413.643646 259.132935,422.835876 262.989319,432.439270 
	C266.611603,441.459808 272.728088,447.815887 281.778107,450.957123 
	C283.782867,451.652954 288.115051,450.650330 288.784546,449.218353 
	C290.573364,445.392273 291.188416,440.940857 291.791229,436.670380 
	C292.074554,434.662994 291.257477,432.500214 290.734467,429.063171 
	C289.867767,428.703949 287.710419,427.809784 285.150024,426.295319 
z"/>
<path fill="#F9F9F9" opacity="1.000000" stroke="none" 
	d="
M285.553070,426.915649 
	C287.710419,427.809784 289.867767,428.703949 290.734467,429.063171 
	C291.257477,432.500214 292.074554,434.662994 291.791229,436.670380 
	C291.188416,440.940857 290.573364,445.392273 288.784546,449.218353 
	C288.115051,450.650330 283.782867,451.652954 281.778107,450.957123 
	C272.728088,447.815887 266.611603,441.459808 262.989319,432.439270 
	C259.132935,422.835876 261.159210,413.643646 263.792755,404.320862 
	C266.266357,395.564178 268.429108,386.718842 270.953156,377.977356 
	C274.121765,367.003448 277.580444,356.113525 280.786530,345.150116 
	C282.034637,340.882263 282.856567,336.491730 284.008636,332.193573 
	C288.710480,314.652069 293.479614,297.128571 298.190887,279.589600 
	C299.589386,274.383240 300.879486,269.147766 301.235168,263.243103 
	C295.224121,268.668671 289.280670,274.171478 283.188812,279.504791 
	C267.248138,293.460541 251.662384,307.865509 235.149750,321.112335 
	C217.160675,335.543610 198.531723,349.425507 177.748627,359.566742 
	C161.157883,367.662292 143.302582,373.129242 124.949417,365.278320 
	C119.313545,362.867432 114.340904,357.863403 110.325752,353.004608 
	C106.438965,348.301086 102.869942,342.552094 101.549942,336.721527 
	C100.111504,330.367828 100.229088,323.108337 101.747826,316.739563 
	C106.889168,295.179657 114.838417,274.600800 125.814720,255.241501 
	C138.911865,232.141586 150.975784,208.403275 165.076355,185.938950 
	C180.697449,161.052170 197.716751,137.006561 214.887329,113.141563 
	C226.523193,96.969139 239.233414,81.543678 251.961197,66.197205 
	C256.337708,60.920254 261.803894,56.271187 267.512268,52.436939 
	C276.966980,46.086323 288.079895,46.165993 298.871277,47.118649 
	C307.135193,47.848190 312.343292,53.814991 312.545746,61.009113 
	C312.640320,64.369720 311.810730,66.702789 307.552612,65.203087 
	C306.229340,64.737030 304.395660,64.588326 303.176910,65.138641 
	C294.453369,69.077660 284.705139,71.450188 278.052826,78.875725 
	C264.861450,93.600418 252.001587,108.622643 239.047440,123.558937 
	C235.235931,127.953651 231.278870,132.265427 227.896271,136.979568 
	C221.439209,145.978409 215.333328,155.229797 209.107864,164.394135 
	C204.181244,171.646515 198.807907,178.648605 194.479385,186.244202 
	C181.041367,209.824982 167.420471,233.339966 155.207794,257.554932 
	C151.956711,264.001099 148.013062,270.162537 145.240005,276.818909 
	C142.060715,284.450439 139.513138,292.365540 137.049332,300.269104 
	C134.452576,308.599274 132.222534,317.046051 129.939728,325.471008 
	C128.410934,331.113190 126.953094,336.780090 125.676620,342.483643 
	C124.371544,348.315002 125.944382,350.285492 131.815735,350.028687 
	C148.684402,349.290863 163.678314,342.764648 177.693497,334.045868 
	C190.240753,326.240234 202.538101,317.972504 214.466858,309.253510 
	C222.908035,303.083679 230.670029,295.956390 238.523209,289.016602 
	C252.235535,276.899231 265.807190,264.622101 279.392303,252.361526 
	C285.907074,246.481934 292.317871,240.487137 298.434082,233.597519 
	C292.739868,235.449234 286.968842,237.096024 281.367096,239.194550 
	C268.963959,243.841019 256.633514,248.682800 244.298431,253.508911 
	C238.353989,255.834686 232.997055,253.044754 229.908768,245.864349 
	C227.021423,239.151138 228.274872,235.568283 234.704178,232.607452 
	C261.556061,220.241638 289.814667,212.196503 318.614319,206.100403 
	C345.119843,200.489883 371.772064,195.563965 398.392609,190.509933 
	C407.384277,188.802795 416.447662,187.954987 426.021637,193.136566 
	C425.032684,193.518723 424.590698,193.676590 424.159821,193.860428 
	C423.861206,193.987839 423.577942,194.151108 423.153778,194.366440 
	C423.532959,194.690430 423.822357,195.038635 424.192047,195.237793 
	C427.403656,196.968002 430.638031,198.427475 432.051270,202.397995 
	C433.436310,206.289413 431.616394,210.067398 427.450073,209.995438 
	C407.630768,209.653091 388.518829,214.341599 369.259674,217.977295 
	C361.439148,219.453629 353.621185,220.977386 345.868103,222.765884 
	C339.900238,224.142532 339.286072,225.505966 341.844116,230.813828 
	C343.975220,235.235703 341.383301,239.057419 339.631500,242.225403 
	C331.523346,256.888336 325.957123,272.377563 321.928406,288.592377 
	C319.466919,298.499573 315.761017,308.090881 312.895142,317.906128 
	C309.783447,328.563354 306.963013,339.306458 304.085815,350.030945 
	C302.797211,354.834198 301.881256,359.744141 300.447815,364.500671 
	C295.569366,380.688904 290.382721,396.786072 285.676697,413.023193 
	C284.599579,416.739563 284.974243,420.876678 284.363525,425.473999 
	C283.952454,426.806519 283.858643,427.485199 283.764832,428.163849 
	C284.360931,427.747803 284.957001,427.331726 285.553070,426.915649 
M265.682800,289.535767 
	C265.299347,289.764679 264.915924,289.993622 264.008759,290.518616 
	C263.612305,290.952576 263.215820,291.386505 262.325897,291.964630 
	C262.157227,292.249481 261.988525,292.534302 261.343872,292.992218 
	C261.182709,293.280579 261.021515,293.568970 260.091125,294.230072 
	C260.036865,294.854614 259.982635,295.479187 259.928375,296.103729 
	C260.574829,295.551666 261.221283,294.999603 262.245239,294.161591 
	C262.542816,294.005249 262.738434,293.765625 263.035889,293.332092 
	C263.035889,293.332092 263.313690,292.965179 263.910889,292.660645 
	C264.308929,292.139984 264.706970,291.619354 265.632599,290.942169 
	C265.751953,290.625793 265.871307,290.309418 266.520355,289.768433 
	C266.431671,289.569885 266.343018,289.371338 266.254333,289.172791 
	C266.133057,289.236298 265.901978,289.316742 265.908691,289.360474 
	C265.945892,289.601654 266.041168,289.833832 265.682800,289.535767 
M305.766663,234.895477 
	C306.043976,234.387299 306.321259,233.879105 306.598541,233.370911 
	C305.990997,233.507675 305.383423,233.644440 304.189270,234.010757 
	C304.498566,234.404770 304.807892,234.798782 305.766663,234.895477 
M250.631180,304.763885 
	C253.729935,302.082855 256.828674,299.401825 259.927429,296.720795 
	C259.565155,296.308075 259.202911,295.895355 258.840637,295.482635 
	C255.499756,298.295776 252.158890,301.108887 248.182144,304.108276 
	C245.604309,306.442169 243.026474,308.776031 239.911682,311.550354 
	C229.295135,319.387390 218.678574,327.224426 208.062012,335.061462 
	C208.591980,335.751862 209.121933,336.442261 209.651901,337.132660 
	C220.182327,328.845795 230.712738,320.558929 241.878296,312.042053 
	C244.585815,309.695404 247.293350,307.348755 250.631180,304.763885 
M219.324173,316.196350 
	C215.579163,318.600464 211.834167,321.004547 208.089157,323.408661 
	C208.422028,323.925232 208.754898,324.441803 209.087769,324.958405 
	C213.056015,322.304535 217.024261,319.650635 221.623642,316.765808 
	C224.412521,314.063171 227.201401,311.360504 229.990280,308.657867 
	C229.512177,308.168488 229.034073,307.679138 228.555954,307.189758 
	C225.690506,310.099243 222.825058,313.008728 219.324173,316.196350 
M286.633301,365.584503 
	C285.163910,370.097717 283.694519,374.610931 282.225128,379.124146 
	C282.876282,379.304901 283.527405,379.485626 284.178558,379.666382 
	C285.576813,374.819855 286.975067,369.973358 288.894562,364.645874 
	C291.058167,356.920898 293.221802,349.195923 295.385406,341.470947 
	C294.527222,341.254791 293.669037,341.038666 292.810852,340.822510 
	C290.894073,348.883301 288.977264,356.944061 286.633301,365.584503 
M212.672104,144.706360 
	C217.230652,138.004517 221.789215,131.302689 226.347763,124.600853 
	C225.689987,124.151123 225.032196,123.701401 224.374405,123.251671 
	C219.706985,130.431595 215.039566,137.611526 209.700058,144.751343 
	C208.764389,145.624039 207.646927,146.367874 206.922379,147.390182 
	C201.968323,154.380035 196.877502,161.288971 192.285339,168.512939 
	C189.751831,172.498459 188.099869,177.044357 186.050507,181.337616 
	C188.153000,180.680771 189.363098,179.551025 190.252197,178.208664 
	C197.563370,167.170319 204.814865,156.092468 212.672104,144.706360 
M276.051758,265.558472 
	C277.749664,265.980621 279.852264,267.233093 281.057953,266.645416 
	C283.301514,265.551849 285.022614,263.386322 287.451111,261.133301 
	C288.516174,260.166504 289.581238,259.199738 291.262482,257.983459 
	C292.811829,256.524872 294.361206,255.066269 295.910553,253.607681 
	C293.456726,253.492462 291.569397,253.797607 289.871918,254.538055 
	C288.310638,255.219070 286.962189,256.291901 286.097107,253.391464 
	C288.784241,250.700912 291.471405,248.010361 294.727875,244.935623 
	C297.975800,242.058563 301.223724,239.181519 304.471649,236.304459 
	C304.124176,235.917648 303.776672,235.530823 303.429199,235.143997 
	C299.918396,238.078156 296.407593,241.012299 292.278961,244.195023 
	C284.089569,251.700073 275.876282,259.179352 267.725433,266.726044 
	C265.310944,268.961578 263.072266,271.387085 260.121765,273.960846 
	C259.462585,274.478180 258.803436,274.995514 258.144257,275.512848 
	C258.315063,275.788483 258.485840,276.064148 258.656647,276.339783 
	C259.635284,275.810669 260.613922,275.281525 262.136322,274.309784 
	C263.048553,273.606537 264.329407,272.102356 264.815063,272.325928 
	C268.943604,274.226074 269.446472,271.171173 270.947693,268.634766 
	C271.947052,266.946320 274.243896,266.025879 276.051758,265.558472 
M132.223114,255.825470 
	C156.948257,206.970276 186.265610,160.915695 217.518982,116.046127 
	C176.854492,168.684479 142.974152,225.394730 114.735832,285.487488 
	C115.314827,285.819275 115.893814,286.151093 116.472801,286.482880 
	C121.630798,276.493561 126.788795,266.504272 132.223114,255.825470 
M270.794006,397.293304 
	C269.708496,403.514771 266.503723,409.471863 267.922974,415.989777 
	C271.559143,404.945496 274.894318,393.890015 278.075531,382.790405 
	C279.828674,376.673645 281.217987,370.452911 282.955322,364.331268 
	C287.201996,349.367767 291.617126,334.451630 295.770996,319.462830 
	C296.184021,317.972504 295.267334,316.113617 294.967773,314.425781 
	C294.442230,314.485107 293.916687,314.544434 293.391144,314.603760 
	C292.968964,315.471527 292.387817,316.298065 292.150116,317.213715 
	C290.435822,323.818054 288.840820,330.453583 287.109375,337.053314 
	C285.579834,342.883453 283.861847,348.664337 282.347137,354.498169 
	C281.569366,357.493835 281.282074,360.627777 280.374908,363.576752 
	C278.084503,371.022430 274.827148,378.265839 273.466003,385.860657 
	C272.817871,389.476959 272.271393,393.035248 270.794006,397.293304 
M312.774750,279.240479 
	C314.358490,273.610321 315.942200,267.980133 317.525940,262.349976 
	C316.937622,262.167084 316.349304,261.984192 315.760986,261.801331 
	C311.710815,273.313904 307.660675,284.826477 303.610535,296.339050 
	C303.994537,296.684387 304.378540,297.029724 304.762512,297.375061 
	C305.798737,296.626038 307.424408,296.083710 307.771667,295.093170 
	C309.516510,290.116180 310.927307,285.022156 312.774750,279.240479 
M297.572418,300.144501 
	C295.781128,304.196533 293.142792,308.045197 293.930237,313.218597 
	C298.849884,310.210114 300.943573,303.348602 297.572418,300.144501 
M274.983002,408.110504 
	C275.336121,409.269440 275.689240,410.428345 276.308990,412.462372 
	C277.620453,405.689880 278.725647,399.982544 279.830872,394.275238 
	C279.364258,394.152222 278.897644,394.029236 278.431030,393.906219 
	C277.281891,398.368896 276.132782,402.831604 274.983002,408.110504 
M246.356888,295.252319 
	C250.072372,293.007263 253.787857,290.762177 257.503326,288.517120 
	C257.157471,288.001648 256.811584,287.486206 256.465698,286.970734 
	C251.447754,287.025940 249.680527,291.929993 246.356888,295.252319 
M295.426849,252.762665 
	C296.500427,252.300659 297.574005,251.838654 298.647583,251.376633 
	C298.416138,250.995346 298.184662,250.614059 297.953186,250.232773 
	C297.138153,250.808945 296.323151,251.385117 295.426849,252.762665 
M206.776108,337.657959 
	C207.317963,337.221802 207.859818,336.785675 208.401688,336.349518 
	C208.156250,336.127686 207.910828,335.905853 207.665390,335.684021 
	C207.197586,336.377808 206.729767,337.071625 206.776108,337.657959 
z"/>
<path fill="#1A1A1A" opacity="1.000000" stroke="none" 
	d="
M132.084961,256.170227 
	C126.788795,266.504272 121.630798,276.493561 116.472801,286.482880 
	C115.893814,286.151093 115.314827,285.819275 114.735832,285.487488 
	C142.974152,225.394730 176.854492,168.684479 217.518982,116.046127 
	C186.265610,160.915695 156.948257,206.970276 132.084961,256.170227 
z"/>
<path fill="#151515" opacity="1.000000" stroke="none" 
	d="
M270.889648,396.886475 
	C272.271393,393.035248 272.817871,389.476959 273.466003,385.860657 
	C274.827148,378.265839 278.084503,371.022430 280.374908,363.576752 
	C281.282074,360.627777 281.569366,357.493835 282.347137,354.498169 
	C283.861847,348.664337 285.579834,342.883453 287.109375,337.053314 
	C288.840820,330.453583 290.435822,323.818054 292.150116,317.213715 
	C292.387817,316.298065 292.968964,315.471527 293.391144,314.603760 
	C293.916687,314.544434 294.442230,314.485107 294.967773,314.425781 
	C295.267334,316.113617 296.184021,317.972504 295.770996,319.462830 
	C291.617126,334.451630 287.201996,349.367767 282.955322,364.331268 
	C281.217987,370.452911 279.828674,376.673645 278.075531,382.790405 
	C274.894318,393.890015 271.559143,404.945496 267.922974,415.989777 
	C266.503723,409.471863 269.708496,403.514771 270.889648,396.886475 
z"/>
<path fill="#131313" opacity="1.000000" stroke="none" 
	d="
M290.646301,258.232941 
	C289.581238,259.199738 288.516174,260.166504 286.787781,261.344543 
	C284.056824,261.077667 281.989166,260.599548 280.128448,260.169250 
	C278.915985,261.505066 277.438019,263.133392 275.960022,264.761719 
	C274.243896,266.025879 271.947052,266.946320 270.947693,268.634766 
	C269.446472,271.171173 268.943604,274.226074 264.815063,272.325928 
	C264.329407,272.102356 263.048553,273.606537 261.659180,274.270569 
	C261.039062,274.062775 260.896057,273.894165 260.753021,273.725525 
	C263.072266,271.387085 265.310944,268.961578 267.725433,266.726044 
	C275.876282,259.179352 284.089569,251.700073 292.863922,244.231567 
	C293.685425,244.618683 293.921997,244.969238 294.158539,245.319809 
	C291.471405,248.010361 288.784241,250.700912 285.700165,253.903687 
	C284.893311,255.759476 284.483398,257.103058 284.225189,257.949402 
	C286.839722,258.064850 288.743011,258.148895 290.646301,258.232941 
z"/>
<path fill="#1B1B1B" opacity="1.000000" stroke="none" 
	d="
M212.084473,145.026611 
	C204.814865,156.092468 197.563370,167.170319 190.252197,178.208664 
	C189.363098,179.551025 188.153000,180.680771 186.050507,181.337616 
	C188.099869,177.044357 189.751831,172.498459 192.285339,168.512939 
	C196.877502,161.288971 201.968323,154.380035 206.922379,147.390182 
	C207.646927,146.367874 208.764389,145.624039 210.463470,144.838013 
	C211.512756,144.958633 211.798615,144.992615 212.084473,145.026611 
z"/>
<path fill="#191919" opacity="1.000000" stroke="none" 
	d="
M312.615082,279.604858 
	C310.927307,285.022156 309.516510,290.116180 307.771667,295.093170 
	C307.424408,296.083710 305.798737,296.626038 304.762512,297.375061 
	C304.378540,297.029724 303.994537,296.684387 303.610535,296.339050 
	C307.660675,284.826477 311.710815,273.313904 315.760986,261.801331 
	C316.349304,261.984192 316.937622,262.167084 317.525940,262.349976 
	C315.942200,267.980133 314.358490,273.610321 312.615082,279.604858 
z"/>
<path fill="#232323" opacity="1.000000" stroke="none" 
	d="
M241.243164,312.272034 
	C230.712738,320.558929 220.182327,328.845795 209.651901,337.132660 
	C209.121933,336.442261 208.591980,335.751862 208.062012,335.061462 
	C218.678574,327.224426 229.295135,319.387390 240.368164,311.627930 
	C240.964142,311.894348 241.103638,312.083191 241.243164,312.272034 
z"/>
<path fill="#1F1F1F" opacity="1.000000" stroke="none" 
	d="
M212.378296,144.866486 
	C211.798615,144.992615 211.512756,144.958633 210.799500,144.858063 
	C215.039566,137.611526 219.706985,130.431595 224.374405,123.251671 
	C225.032196,123.701401 225.689987,124.151123 226.347763,124.600853 
	C221.789215,131.302689 217.230652,138.004517 212.378296,144.866486 
z"/>
<path fill="#232323" opacity="1.000000" stroke="none" 
	d="
M287.060486,365.004852 
	C288.977264,356.944061 290.894073,348.883301 292.810852,340.822510 
	C293.669037,341.038666 294.527222,341.254791 295.385406,341.470947 
	C293.221802,349.195923 291.058167,356.920898 288.305969,364.853485 
	C287.498413,365.042358 287.279480,365.023621 287.060486,365.004852 
z"/>
<path fill="#222222" opacity="1.000000" stroke="none" 
	d="
M297.970276,300.195526 
	C300.943573,303.348602 298.849884,310.210114 293.930237,313.218597 
	C293.142792,308.045197 295.781128,304.196533 297.970276,300.195526 
z"/>
<path fill="#D7D7D7" opacity="1.000000" stroke="none" 
	d="
M276.005890,265.160095 
	C277.438019,263.133392 278.915985,261.505066 280.128448,260.169250 
	C281.989166,260.599548 284.056824,261.077667 286.542816,261.611420 
	C285.022614,263.386322 283.301514,265.551849 281.057953,266.645416 
	C279.852264,267.233093 277.749664,265.980621 276.005890,265.160095 
z"/>
<path fill="#303030" opacity="1.000000" stroke="none" 
	d="
M274.983337,407.702393 
	C276.132782,402.831604 277.281891,398.368896 278.431030,393.906219 
	C278.897644,394.029236 279.364258,394.152222 279.830872,394.275238 
	C278.725647,399.982544 277.620453,405.689880 276.308990,412.462372 
	C275.689240,410.428345 275.336121,409.269440 274.983337,407.702393 
z"/>
<path fill="#282828" opacity="1.000000" stroke="none" 
	d="
M290.954407,258.108215 
	C288.743011,258.148895 286.839722,258.064850 284.225189,257.949402 
	C284.483398,257.103058 284.893311,255.759476 285.585999,254.228882 
	C286.962189,256.291901 288.310638,255.219070 289.871918,254.538055 
	C291.569397,253.797607 293.456726,253.492462 295.910553,253.607681 
	C294.361206,255.066269 292.811829,256.524872 290.954407,258.108215 
z"/>
<path fill="#262626" opacity="1.000000" stroke="none" 
	d="
M246.383392,294.921936 
	C249.680527,291.929993 251.447754,287.025940 256.465698,286.970734 
	C256.811584,287.486206 257.157471,288.001648 257.503326,288.517120 
	C253.787857,290.762177 250.072372,293.007263 246.383392,294.921936 
z"/>
<path fill="#171717" opacity="1.000000" stroke="none" 
	d="
M286.846924,365.294678 
	C287.279480,365.023621 287.498413,365.042358 288.045349,365.093994 
	C286.975067,369.973358 285.576813,374.819855 284.178558,379.666382 
	C283.527405,379.485626 282.876282,379.304901 282.225128,379.124146 
	C283.694519,374.610931 285.163910,370.097717 286.846924,365.294678 
z"/>
<path fill="#282828" opacity="1.000000" stroke="none" 
	d="
M220.992493,316.996765 
	C217.024261,319.650635 213.056015,322.304535 209.087769,324.958405 
	C208.754898,324.441803 208.422028,323.925232 208.089157,323.408661 
	C211.834167,321.004547 215.579163,318.600464 219.762268,316.282715 
	C220.464401,316.578339 220.728439,316.787567 220.992493,316.996765 
z"/>
<path fill="#262626" opacity="1.000000" stroke="none" 
	d="
M294.443207,245.127716 
	C293.921997,244.969238 293.685425,244.618683 293.172852,244.107285 
	C296.407593,241.012299 299.918396,238.078156 303.429199,235.143997 
	C303.776672,235.530823 304.124176,235.917648 304.471649,236.304459 
	C301.223724,239.181519 297.975800,242.058563 294.443207,245.127716 
z"/>
<path fill="#0F0F0F" opacity="1.000000" stroke="none" 
	d="
M221.308075,316.881287 
	C220.728439,316.787567 220.464401,316.578339 220.079987,316.143677 
	C222.825058,313.008728 225.690506,310.099243 228.555954,307.189758 
	C229.034073,307.679138 229.512177,308.168488 229.990280,308.657867 
	C227.201401,311.360504 224.412521,314.063171 221.308075,316.881287 
z"/>
<path fill="#2B2B2B" opacity="1.000000" stroke="none" 
	d="
M248.818024,303.921997 
	C252.158890,301.108887 255.499756,298.295776 258.840637,295.482635 
	C259.202911,295.895355 259.565155,296.308075 259.927429,296.720795 
	C256.828674,299.401825 253.729935,302.082855 250.181152,304.642700 
	C249.426758,304.321655 249.122391,304.121857 248.818024,303.921997 
z"/>
<path fill="#232323" opacity="1.000000" stroke="none" 
	d="
M248.500092,304.015137 
	C249.122391,304.121857 249.426758,304.321655 249.865997,304.761780 
	C247.293350,307.348755 244.585815,309.695404 241.560730,312.157043 
	C241.103638,312.083191 240.964142,311.894348 240.636627,311.407715 
	C243.026474,308.776031 245.604309,306.442169 248.500092,304.015137 
z"/>
<path fill="#282828" opacity="1.000000" stroke="none" 
	d="
M295.467468,252.361984 
	C296.323151,251.385117 297.138153,250.808945 297.953186,250.232773 
	C298.184662,250.614059 298.416138,250.995346 298.647583,251.376633 
	C297.574005,251.838654 296.500427,252.300659 295.467468,252.361984 
z"/>
<path fill="#232323" opacity="1.000000" stroke="none" 
	d="
M206.519028,337.711670 
	C206.729767,337.071625 207.197586,336.377808 207.665390,335.684021 
	C207.910828,335.905853 208.156250,336.127686 208.401688,336.349518 
	C207.859818,336.785675 207.317963,337.221802 206.519028,337.711670 
z"/>
<path fill="#131313" opacity="1.000000" stroke="none" 
	d="
M261.387329,274.491882 
	C260.613922,275.281525 259.635284,275.810669 258.656647,276.339783 
	C258.485840,276.064148 258.315063,275.788483 258.144257,275.512848 
	C258.803436,274.995514 259.462585,274.478180 260.437378,273.843201 
	C260.896057,273.894165 261.039062,274.062775 261.387329,274.491882 
z"/>
<path fill="#2B2B2B" opacity="1.000000" stroke="none" 
	d="
M261.867767,294.447571 
	C261.221283,294.999603 260.574829,295.551666 259.928406,296.103729 
	C259.982635,295.479187 260.036865,294.854614 260.715637,294.211670 
	C261.515991,294.278046 261.691895,294.362823 261.867767,294.447571 
z"/>
<path fill="#262626" opacity="1.000000" stroke="none" 
	d="
M304.775879,233.781189 
	C305.383423,233.644440 305.990997,233.507675 306.598541,233.370911 
	C306.321259,233.879105 306.043976,234.387299 305.413757,234.677429 
	C304.965851,234.233322 304.870880,234.007263 304.775879,233.781189 
z"/>
<path fill="#2B2B2B" opacity="1.000000" stroke="none" 
	d="
M265.105011,291.098724 
	C264.706970,291.619354 264.308929,292.139984 263.518433,292.513794 
	C263.023712,292.184784 262.921509,292.002594 262.819336,291.820435 
	C263.215820,291.386505 263.612305,290.952576 264.400208,290.598511 
	C264.896057,290.818481 265.000519,290.958588 265.105011,291.098724 
z"/>
<path fill="#000000" opacity="1.000000" stroke="none" 
	d="
M285.351562,426.605469 
	C284.957001,427.331726 284.360931,427.747803 283.764832,428.163849 
	C283.858643,427.485199 283.952454,426.806519 284.371887,425.919006 
	C284.848389,425.905182 284.999207,426.100250 285.351562,426.605469 
z"/>
<path fill="#2B2B2B" opacity="1.000000" stroke="none" 
	d="
M261.100220,294.025330 
	C261.021515,293.568970 261.182709,293.280579 261.824677,293.078247 
	C262.481049,293.257111 262.656586,293.349945 262.832123,293.442780 
	C262.738434,293.765625 262.542816,294.005249 262.056519,294.304565 
	C261.691895,294.362823 261.515991,294.278046 261.100220,294.025330 
z"/>
<path fill="#2B2B2B" opacity="1.000000" stroke="none" 
	d="
M262.062653,292.991699 
	C261.988525,292.534302 262.157227,292.249481 262.572632,291.892517 
	C262.921509,292.002594 263.023712,292.184784 263.219818,292.666077 
	C263.313690,292.965179 263.035889,293.332092 262.934021,293.387451 
	C262.656586,293.349945 262.481049,293.257111 262.062653,292.991699 
z"/>
<path fill="#2B2B2B" opacity="1.000000" stroke="none" 
	d="
M265.990662,289.993042 
	C265.871307,290.309418 265.751953,290.625793 265.368805,291.020447 
	C265.000519,290.958588 264.896057,290.818481 264.662048,290.450470 
	C264.915924,289.993622 265.299347,289.764679 265.866974,289.785461 
	C266.051147,290.035126 265.990662,289.993042 265.990662,289.993042 
z"/>
<path fill="#2B2B2B" opacity="1.000000" stroke="none" 
	d="
M266.083862,290.052124 
	C266.041168,289.833832 265.945892,289.601654 265.908691,289.360474 
	C265.901978,289.316742 266.133057,289.236298 266.254333,289.172791 
	C266.343018,289.371338 266.431671,289.569885 266.255493,289.880737 
	C265.990662,289.993042 266.051147,290.035126 266.083862,290.052124 
z"/>
<path fill="#262626" opacity="1.000000" stroke="none" 
	d="
M305.088989,234.826080 
	C304.807892,234.798782 304.498566,234.404770 304.482574,233.895966 
	C304.870880,234.007263 304.965851,234.233322 305.088989,234.826080 
z"/>
</svg>