<svg version="1.1" id="Layer_1" xmlns="http://www.w3.org/2000/svg" xmlns:xlink="http://www.w3.org/1999/xlink" x="0px" y="0px"
	 width="100%" viewBox="0 0 500 500" enable-background="new 0 0 500 500" xml:space="preserve">

<path fill="#1A1A1A" opacity="1" stroke="none" 
	d="
M132.084961,256.170227 
	C126.788795,266.504272 121.630798,276.493561 116.472801,286.482880 
	C115.893814,286.151093 115.314827,285.819275 114.735832,285.487488 
	C142.974152,225.394730 176.854492,168.684479 217.518982,116.046127 
	C186.265610,160.915695 156.948257,206.970276 132.084961,256.170227 
z"/>
<path fill="#151515" opacity="1" stroke="none" 
	d="
M270.889648,396.886475 
	C272.271393,393.035248 272.817871,389.476959 273.466003,385.860657 
	C274.827148,378.265839 278.084503,371.022430 280.374908,363.576752 
	C281.282074,360.627777 281.569366,357.493835 282.347137,354.498169 
	C283.861847,348.664337 285.579834,342.883453 287.109375,337.053314 
	C288.840820,330.453583 290.435822,323.818054 292.150116,317.213715 
	C292.387817,316.298065 292.968964,315.471527 293.391144,314.603760 
	C293.916687,314.544434 294.442230,314.485107 294.967773,314.425781 
	C295.267334,316.113617 296.184021,317.972504 295.770996,319.462830 
	C291.617126,334.451630 287.201996,349.367767 282.955322,364.331268 
	C281.217987,370.452911 279.828674,376.673645 278.075531,382.790405 
	C274.894318,393.890015 271.559143,404.945496 267.922974,415.989777 
	C266.503723,409.471863 269.708496,403.514771 270.889648,396.886475 
z"/>
<path fill="#131313" opacity="1.000000" stroke="none" 
	d="
M290.646301,258.232941 
	C289.581238,259.199738 288.516174,260.166504 286.787781,261.344543 
	C284.056824,261.077667 281.989166,260.599548 280.128448,260.169250 
	C278.915985,261.505066 277.438019,263.133392 275.960022,264.761719 
	C274.243896,266.025879 271.947052,266.946320 270.947693,268.634766 
	C269.446472,271.171173 268.943604,274.226074 264.815063,272.325928 
	C264.329407,272.102356 263.048553,273.606537 261.659180,274.270569 
	C261.039062,274.062775 260.896057,273.894165 260.753021,273.725525 
	C263.072266,271.387085 265.310944,268.961578 267.725433,266.726044 
	C275.876282,259.179352 284.089569,251.700073 292.863922,244.231567 
	C293.685425,244.618683 293.921997,244.969238 294.158539,245.319809 
	C291.471405,248.010361 288.784241,250.700912 285.700165,253.903687 
	C284.893311,255.759476 284.483398,257.103058 284.225189,257.949402 
	C286.839722,258.064850 288.743011,258.148895 290.646301,258.232941 
z"/>
<path fill="#1B1B1B" opacity="1.000000" stroke="none" 
	d="
M212.084473,145.026611 
	C204.814865,156.092468 197.563370,167.170319 190.252197,178.208664 
	C189.363098,179.551025 188.153000,180.680771 186.050507,181.337616 
	C188.099869,177.044357 189.751831,172.498459 192.285339,168.512939 
	C196.877502,161.288971 201.968323,154.380035 206.922379,147.390182 
	C207.646927,146.367874 208.764389,145.624039 210.463470,144.838013 
	C211.512756,144.958633 211.798615,144.992615 212.084473,145.026611 
z"/>
<path fill="#191919" opacity="1.000000" stroke="none" 
	d="
M312.615082,279.604858 
	C310.927307,285.022156 309.516510,290.116180 307.771667,295.093170 
	C307.424408,296.083710 305.798737,296.626038 304.762512,297.375061 
	C304.378540,297.029724 303.994537,296.684387 303.610535,296.339050 
	C307.660675,284.826477 311.710815,273.313904 315.760986,261.801331 
	C316.349304,261.984192 316.937622,262.167084 317.525940,262.349976 
	C315.942200,267.980133 314.358490,273.610321 312.615082,279.604858 
z"/>
<path fill="#232323" opacity="1.000000" stroke="none" 
	d="
M241.243164,312.272034 
	C230.712738,320.558929 220.182327,328.845795 209.651901,337.132660 
	C209.121933,336.442261 208.591980,335.751862 208.062012,335.061462 
	C218.678574,327.224426 229.295135,319.387390 240.368164,311.627930 
	C240.964142,311.894348 241.103638,312.083191 241.243164,312.272034 
z"/>
<path fill="#1F1F1F" opacity="1.000000" stroke="none" 
	d="
M212.378296,144.866486 
	C211.798615,144.992615 211.512756,144.958633 210.799500,144.858063 
	C215.039566,137.611526 219.706985,130.431595 224.374405,123.251671 
	C225.032196,123.701401 225.689987,124.151123 226.347763,124.600853 
	C221.789215,131.302689 217.230652,138.004517 212.378296,144.866486 
z"/>
<path fill="#232323" opacity="1.000000" stroke="none" 
	d="
M287.060486,365.004852 
	C288.977264,356.944061 290.894073,348.883301 292.810852,340.822510 
	C293.669037,341.038666 294.527222,341.254791 295.385406,341.470947 
	C293.221802,349.195923 291.058167,356.920898 288.305969,364.853485 
	C287.498413,365.042358 287.279480,365.023621 287.060486,365.004852 
z"/>
<path fill="#222222" opacity="1.000000" stroke="none" 
	d="
M297.970276,300.195526 
	C300.943573,303.348602 298.849884,310.210114 293.930237,313.218597 
	C293.142792,308.045197 295.781128,304.196533 297.970276,300.195526 
z"/>
<path fill="#D7D7D7" opacity="1.000000" stroke="none" 
	d="
M276.005890,265.160095 
	C277.438019,263.133392 278.915985,261.505066 280.128448,260.169250 
	C281.989166,260.599548 284.056824,261.077667 286.542816,261.611420 
	C285.022614,263.386322 283.301514,265.551849 281.057953,266.645416 
	C279.852264,267.233093 277.749664,265.980621 276.005890,265.160095 
z"/>
<path fill="#303030" opacity="1.000000" stroke="none" 
	d="
M274.983337,407.702393 
	C276.132782,402.831604 277.281891,398.368896 278.431030,393.906219 
	C278.897644,394.029236 279.364258,394.152222 279.830872,394.275238 
	C278.725647,399.982544 277.620453,405.689880 276.308990,412.462372 
	C275.689240,410.428345 275.336121,409.269440 274.983337,407.702393 
z"/>
<path fill="#282828" opacity="1.000000" stroke="none" 
	d="
M290.954407,258.108215 
	C288.743011,258.148895 286.839722,258.064850 284.225189,257.949402 
	C284.483398,257.103058 284.893311,255.759476 285.585999,254.228882 
	C286.962189,256.291901 288.310638,255.219070 289.871918,254.538055 
	C291.569397,253.797607 293.456726,253.492462 295.910553,253.607681 
	C294.361206,255.066269 292.811829,256.524872 290.954407,258.108215 
z"/>
<path fill="#262626" opacity="1.000000" stroke="none" 
	d="
M246.383392,294.921936 
	C249.680527,291.929993 251.447754,287.025940 256.465698,286.970734 
	C256.811584,287.486206 257.157471,288.001648 257.503326,288.517120 
	C253.787857,290.762177 250.072372,293.007263 246.383392,294.921936 
z"/>
<path fill="#171717" opacity="1.000000" stroke="none" 
	d="
M286.846924,365.294678 
	C287.279480,365.023621 287.498413,365.042358 288.045349,365.093994 
	C286.975067,369.973358 285.576813,374.819855 284.178558,379.666382 
	C283.527405,379.485626 282.876282,379.304901 282.225128,379.124146 
	C283.694519,374.610931 285.163910,370.097717 286.846924,365.294678 
z"/>
<path fill="#282828" opacity="1.000000" stroke="none" 
	d="
M220.992493,316.996765 
	C217.024261,319.650635 213.056015,322.304535 209.087769,324.958405 
	C208.754898,324.441803 208.422028,323.925232 208.089157,323.408661 
	C211.834167,321.004547 215.579163,318.600464 219.762268,316.282715 
	C220.464401,316.578339 220.728439,316.787567 220.992493,316.996765 
z"/>
<path fill="#262626" opacity="1.000000" stroke="none" 
	d="
M294.443207,245.127716 
	C293.921997,244.969238 293.685425,244.618683 293.172852,244.107285 
	C296.407593,241.012299 299.918396,238.078156 303.429199,235.143997 
	C303.776672,235.530823 304.124176,235.917648 304.471649,236.304459 
	C301.223724,239.181519 297.975800,242.058563 294.443207,245.127716 
z"/>
<path fill="#0F0F0F" opacity="1.000000" stroke="none" 
	d="
M221.308075,316.881287 
	C220.728439,316.787567 220.464401,316.578339 220.079987,316.143677 
	C222.825058,313.008728 225.690506,310.099243 228.555954,307.189758 
	C229.034073,307.679138 229.512177,308.168488 229.990280,308.657867 
	C227.201401,311.360504 224.412521,314.063171 221.308075,316.881287 
z"/>
<path fill="#2B2B2B" opacity="1.000000" stroke="none" 
	d="
M248.818024,303.921997 
	C252.158890,301.108887 255.499756,298.295776 258.840637,295.482635 
	C259.202911,295.895355 259.565155,296.308075 259.927429,296.720795 
	C256.828674,299.401825 253.729935,302.082855 250.181152,304.642700 
	C249.426758,304.321655 249.122391,304.121857 248.818024,303.921997 
z"/>
<path fill="#232323" opacity="1.000000" stroke="none" 
	d="
M248.500092,304.015137 
	C249.122391,304.121857 249.426758,304.321655 249.865997,304.761780 
	C247.293350,307.348755 244.585815,309.695404 241.560730,312.157043 
	C241.103638,312.083191 240.964142,311.894348 240.636627,311.407715 
	C243.026474,308.776031 245.604309,306.442169 248.500092,304.015137 
z"/>
<path fill="#282828" opacity="1.000000" stroke="none" 
	d="
M295.467468,252.361984 
	C296.323151,251.385117 297.138153,250.808945 297.953186,250.232773 
	C298.184662,250.614059 298.416138,250.995346 298.647583,251.376633 
	C297.574005,251.838654 296.500427,252.300659 295.467468,252.361984 
z"/>
<path fill="#232323" opacity="1.000000" stroke="none" 
	d="
M206.519028,337.711670 
	C206.729767,337.071625 207.197586,336.377808 207.665390,335.684021 
	C207.910828,335.905853 208.156250,336.127686 208.401688,336.349518 
	C207.859818,336.785675 207.317963,337.221802 206.519028,337.711670 
z"/>
<path fill="#131313" opacity="1.000000" stroke="none" 
	d="
M261.387329,274.491882 
	C260.613922,275.281525 259.635284,275.810669 258.656647,276.339783 
	C258.485840,276.064148 258.315063,275.788483 258.144257,275.512848 
	C258.803436,274.995514 259.462585,274.478180 260.437378,273.843201 
	C260.896057,273.894165 261.039062,274.062775 261.387329,274.491882 
z"/>
<path fill="#2B2B2B" opacity="1.000000" stroke="none" 
	d="
M261.867767,294.447571 
	C261.221283,294.999603 260.574829,295.551666 259.928406,296.103729 
	C259.982635,295.479187 260.036865,294.854614 260.715637,294.211670 
	C261.515991,294.278046 261.691895,294.362823 261.867767,294.447571 
z"/>
<path fill="#262626" opacity="1.000000" stroke="none" 
	d="
M304.775879,233.781189 
	C305.383423,233.644440 305.990997,233.507675 306.598541,233.370911 
	C306.321259,233.879105 306.043976,234.387299 305.413757,234.677429 
	C304.965851,234.233322 304.870880,234.007263 304.775879,233.781189 
z"/>
<path fill="#2B2B2B" opacity="1.000000" stroke="none" 
	d="
M265.105011,291.098724 
	C264.706970,291.619354 264.308929,292.139984 263.518433,292.513794 
	C263.023712,292.184784 262.921509,292.002594 262.819336,291.820435 
	C263.215820,291.386505 263.612305,290.952576 264.400208,290.598511 
	C264.896057,290.818481 265.000519,290.958588 265.105011,291.098724 
z"/>
<path fill="#000000" opacity="1.000000" stroke="none" 
	d="
M285.351562,426.605469 
	C284.957001,427.331726 284.360931,427.747803 283.764832,428.163849 
	C283.858643,427.485199 283.952454,426.806519 284.371887,425.919006 
	C284.848389,425.905182 284.999207,426.100250 285.351562,426.605469 
z"/>
<path fill="#2B2B2B" opacity="1.000000" stroke="none" 
	d="
M261.100220,294.025330 
	C261.021515,293.568970 261.182709,293.280579 261.824677,293.078247 
	C262.481049,293.257111 262.656586,293.349945 262.832123,293.442780 
	C262.738434,293.765625 262.542816,294.005249 262.056519,294.304565 
	C261.691895,294.362823 261.515991,294.278046 261.100220,294.025330 
z"/>
<path fill="#2B2B2B" opacity="1.000000" stroke="none" 
	d="
M262.062653,292.991699 
	C261.988525,292.534302 262.157227,292.249481 262.572632,291.892517 
	C262.921509,292.002594 263.023712,292.184784 263.219818,292.666077 
	C263.313690,292.965179 263.035889,293.332092 262.934021,293.387451 
	C262.656586,293.349945 262.481049,293.257111 262.062653,292.991699 
z"/>
<path fill="#2B2B2B" opacity="1.000000" stroke="none" 
	d="
M265.990662,289.993042 
	C265.871307,290.309418 265.751953,290.625793 265.368805,291.020447 
	C265.000519,290.958588 264.896057,290.818481 264.662048,290.450470 
	C264.915924,289.993622 265.299347,289.764679 265.866974,289.785461 
	C266.051147,290.035126 265.990662,289.993042 265.990662,289.993042 
z"/>
<path fill="#2B2B2B" opacity="1.000000" stroke="none" 
	d="
M266.083862,290.052124 
	C266.041168,289.833832 265.945892,289.601654 265.908691,289.360474 
	C265.901978,289.316742 266.133057,289.236298 266.254333,289.172791 
	C266.343018,289.371338 266.431671,289.569885 266.255493,289.880737 
	C265.990662,289.993042 266.051147,290.035126 266.083862,290.052124 
z"/>
<path fill="#262626" opacity="1.000000" stroke="none" 
	d="
M305.088989,234.826080 
	C304.807892,234.798782 304.498566,234.404770 304.482574,233.895966 
	C304.870880,234.007263 304.965851,234.233322 305.088989,234.826080 
z"/>
</svg>